<?xml version="1.0" encoding="utf-8"?>
<!-- Generator: Adobe Illustrator 24.1.2, SVG Export Plug-In . SVG Version: 6.00 Build 0)  -->
<svg version="1.1" id="Layer_1" xmlns="http://www.w3.org/2000/svg" xmlns:xlink="http://www.w3.org/1999/xlink" x="0px" y="0px"
	 viewBox="0 0 1000 1000" style="enable-background:new 0 0 1000 1000;" xml:space="preserve">
<style type="text/css">
	.st0{fill:#40C5E5;}
	.st1{fill:#FFFFFF;}
</style>
<path d="M748.94,1000H251.06C112.41,1000,0,887.59,0,748.94V251.06C0,112.41,112.41,0,251.06,0h497.87
	C887.59,0,1000,112.41,1000,251.06v497.87C1000,887.59,887.59,1000,748.94,1000z"/>
<path class="st0" d="M879.14,444.39c-0.64-8.32-1.01-16.63-1.01-24.98l-3.05-234.63C628.85,166.3,496.54,32.43,496.54,32.43
	c-158.51,149.28-375.5,152.36-375.5,152.36s-3.87,116.17,0,297.8c3.84,181.6,79.26,263.93,79.26,263.93l48.46-48.49
	c-76.94-115.41-64.64-233.14-64.64-233.14V241.72c213.16-31.56,313.52-126.19,313.52-126.19
	c167.34,122.36,313.64,124.67,313.64,124.67s-0.79,35.39,3.08,174.65c3.84,139.29-25.8,239.32-103.9,334.75
	c-78.1,95.43-212.82,147.73-212.82,147.73C387.55,857.33,312.44,777.1,312.44,777.1l19.55-19.55v-74.89l-103.25,105.4
	c123.12,138.5,268.9,180.08,268.9,180.08c78.07-29.24,234.36-109.29,314.4-246.26C879.62,606.16,881.94,480.58,879.14,444.39z"/>
<path class="st1" d="M575.79,500.29l174.68-178.16l-68.87,0.76L532.81,470.44l-38.23-38.23l-16.9-16.91l-91.87-91.56l-1.25-1.22
	l-137.49,0.76l160.28,165.09c2.16,2.22,4.42,4.33,6.82,6.27c13.43,11.03,14.93,28.24-2.01,43.53l-62.11,59.52
	c-1.95,1.95-0.58,5.3,2.19,5.3l18.49,1.8c2.04,0,4.14,0.18,6.15,0.64c30.09,6.79-0.4,31.8-0.4,31.8l-29.34,29.95v75.2L491.14,598.4
	c4.05-4.05,10.6-4.05,14.62,0l73.86,75.78l136.79-1.92c0,0-121.78-121.96-139.87-141.97C558.49,510.28,575.79,500.29,575.79,500.29z
	"/>
<polygon points="494.62,432.18 494.59,432.21 477.68,415.3 "/>
<polygon points="477.68,415.3 385.82,323.74 385.97,323.59 "/>
</svg>
